<svg class="animated" id="freepik_stories-air-support" xmlns="http://www.w3.org/2000/svg" viewBox="0 0 500 500" version="1.1" xmlns:xlink="http://www.w3.org/1999/xlink" xmlns:svgjs="http://svgjs.com/svgjs"><style>svg#freepik_stories-air-support:not(.animated) .animable {opacity: 0;}svg#freepik_stories-air-support.animated #freepik--background-complete--inject-26 {animation: 1s 1 forwards cubic-bezier(.36,-0.01,.5,1.38) fadeIn;animation-delay: 0s;}svg#freepik_stories-air-support.animated #freepik--Shadow--inject-26 {animation: 1s 1 forwards cubic-bezier(.36,-0.01,.5,1.38) slideRight;animation-delay: 0s;}svg#freepik_stories-air-support.animated #freepik--plane-1--inject-26 {animation: 1s 1 forwards cubic-bezier(.36,-0.01,.5,1.38) slideLeft,1.5s Infinite  linear floating;animation-delay: 0s,1s;}svg#freepik_stories-air-support.animated #freepik--plane-2--inject-26 {animation: 1s 1 forwards cubic-bezier(.36,-0.01,.5,1.38) slideLeft;animation-delay: 0s;}svg#freepik_stories-air-support.animated #freepik--plane-3--inject-26 {animation: 1s 1 forwards cubic-bezier(.36,-0.01,.5,1.38) zoomOut;animation-delay: 0s;}            @keyframes fadeIn {                0% {                    opacity: 0;                }                100% {                    opacity: 1;                }            }                    @keyframes slideRight {                0% {                    opacity: 0;                    transform: translateX(30px);                }                100% {                    opacity: 1;                    transform: translateX(0);                }            }                    @keyframes slideLeft {                0% {                    opacity: 0;                    transform: translateX(-30px);                }                100% {                    opacity: 1;                    transform: translateX(0);                }            }                    @keyframes floating {                0% {                    opacity: 1;                    transform: translateY(0px);                }                50% {                    transform: translateY(-10px);                }                100% {                    opacity: 1;                    transform: translateY(0px);                }            }                    @keyframes zoomOut {                0% {                    opacity: 0;                    transform: scale(1.5);                }                100% {                    opacity: 1;                    transform: scale(1);                }            }        </style><g id="freepik--background-complete--inject-26" class="animable" style="transform-origin: 250px 224.71px;"><rect y="382.4" width="500" height="0.25" style="fill: rgb(235, 235, 235); transform-origin: 250px 382.525px;" id="elhsxfu0mg5cl" class="animable"></rect><rect x="416.78" y="394.17" width="33.12" height="0.25" style="fill: rgb(235, 235, 235); transform-origin: 433.34px 394.295px;" id="elizyjqqz5e" class="animable"></rect><rect x="238.24" y="386.69" width="146.54" height="0.25" style="fill: rgb(235, 235, 235); transform-origin: 311.51px 386.815px;" id="el2xvmy97ymud" class="animable"></rect><rect x="52.46" y="386.57" width="15.21" height="0.25" style="fill: rgb(235, 235, 235); transform-origin: 60.065px 386.695px;" id="elxcnkj35s1pb" class="animable"></rect><rect x="76.57" y="386.57" width="34.32" height="0.25" style="fill: rgb(235, 235, 235); transform-origin: 93.73px 386.695px;" id="elskphbx9yn8" class="animable"></rect><rect x="131.47" y="390.79" width="44.2" height="0.25" style="fill: rgb(235, 235, 235); transform-origin: 153.57px 390.915px;" id="elyoawfxlopfj" class="animable"></rect><path d="M238.45,337.8H45.35a5.71,5.71,0,0,1-5.71-5.71V60.66A5.72,5.72,0,0,1,45.35,55h193.1a5.71,5.71,0,0,1,5.7,5.71V332.09A5.71,5.71,0,0,1,238.45,337.8ZM45.35,55.2a5.48,5.48,0,0,0-5.46,5.46V332.09a5.48,5.48,0,0,0,5.46,5.46h193.1a5.46,5.46,0,0,0,5.45-5.46V60.66a5.46,5.46,0,0,0-5.45-5.46Z" style="fill: rgb(235, 235, 235); transform-origin: 141.895px 196.4px;" id="elxhqsfoqi438" class="animable"></path><path d="M453.31,337.8H260.21a5.73,5.73,0,0,1-5.71-5.71V60.66A5.72,5.72,0,0,1,260.21,55h193.1A5.71,5.71,0,0,1,459,60.66V332.09A5.7,5.7,0,0,1,453.31,337.8ZM260.21,55.2a5.48,5.48,0,0,0-5.46,5.46V332.09a5.48,5.48,0,0,0,5.46,5.46h193.1a5.48,5.48,0,0,0,5.46-5.46V60.66a5.48,5.48,0,0,0-5.46-5.46Z" style="fill: rgb(235, 235, 235); transform-origin: 356.75px 196.4px;" id="el3gen1rdp6yb" class="animable"></path><rect x="179.68" y="199.28" width="69.91" height="183.12" style="fill: rgb(240, 240, 240); transform-origin: 214.635px 290.84px;" id="elik9gb374h4" class="animable"></rect><rect x="160.49" y="199.28" width="82.1" height="183.12" style="fill: rgb(250, 250, 250); transform-origin: 201.54px 290.84px;" id="elfcoxh3twi8" class="animable"></rect><rect x="164.72" y="205.04" width="9.68" height="9.68" style="fill: rgb(235, 235, 235); transform-origin: 169.56px 209.88px;" id="el1oqmynelk3m" class="animable"></rect><rect x="180.51" y="205.04" width="9.68" height="9.68" style="fill: rgb(235, 235, 235); transform-origin: 185.35px 209.88px;" id="el8dxaszqh2et" class="animable"></rect><rect x="196.3" y="205.04" width="9.68" height="9.68" style="fill: rgb(235, 235, 235); transform-origin: 201.14px 209.88px;" id="elt9hjac8oka" class="animable"></rect><rect x="212.08" y="205.04" width="9.68" height="9.68" style="fill: rgb(235, 235, 235); transform-origin: 216.92px 209.88px;" id="elfyov5u9dccr" class="animable"></rect><rect x="227.87" y="205.04" width="9.68" height="9.68" style="fill: rgb(235, 235, 235); transform-origin: 232.71px 209.88px;" id="elk0o92e5rkyb" class="animable"></rect><rect x="164.72" y="218.08" width="9.68" height="9.68" style="fill: rgb(235, 235, 235); transform-origin: 169.56px 222.92px;" id="elx9nzvmapwbf" class="animable"></rect><rect x="180.51" y="218.08" width="9.68" height="9.68" style="fill: rgb(235, 235, 235); transform-origin: 185.35px 222.92px;" id="elkkoovatjzer" class="animable"></rect><rect x="196.3" y="218.08" width="9.68" height="9.68" style="fill: rgb(235, 235, 235); transform-origin: 201.14px 222.92px;" id="elhw6u15jirl" class="animable"></rect><rect x="212.08" y="218.08" width="9.68" height="9.68" style="fill: rgb(235, 235, 235); transform-origin: 216.92px 222.92px;" id="ell94qpkl1u5l" class="animable"></rect><rect x="227.87" y="218.08" width="9.68" height="9.68" style="fill: rgb(235, 235, 235); transform-origin: 232.71px 222.92px;" id="el4ijrcwqt1ip" class="animable"></rect><rect x="164.72" y="231.11" width="9.68" height="9.68" style="fill: rgb(235, 235, 235); transform-origin: 169.56px 235.95px;" id="elph5subd9af" class="animable"></rect><rect x="180.51" y="231.11" width="9.68" height="9.68" style="fill: rgb(235, 235, 235); transform-origin: 185.35px 235.95px;" id="el9hsgz17pvkk" class="animable"></rect><rect x="196.3" y="231.11" width="9.68" height="9.68" style="fill: rgb(235, 235, 235); transform-origin: 201.14px 235.95px;" id="el98bf3m9b9s" class="animable"></rect><rect x="212.08" y="231.11" width="9.68" height="9.68" style="fill: rgb(235, 235, 235); transform-origin: 216.92px 235.95px;" id="el4vi7kf7ztor" class="animable"></rect><rect x="227.87" y="231.11" width="9.68" height="9.68" style="fill: rgb(235, 235, 235); transform-origin: 232.71px 235.95px;" id="el9wa10f75sh8" class="animable"></rect><rect x="164.72" y="244.14" width="9.68" height="9.68" style="fill: rgb(235, 235, 235); transform-origin: 169.56px 248.98px;" id="el5unuzpx0dl8" class="animable"></rect><rect x="180.51" y="244.14" width="9.68" height="9.68" style="fill: rgb(235, 235, 235); transform-origin: 185.35px 248.98px;" id="el3p0txok0gi2" class="animable"></rect><rect x="196.3" y="244.14" width="9.68" height="9.68" style="fill: rgb(235, 235, 235); transform-origin: 201.14px 248.98px;" id="el1ja8ge3ardp" class="animable"></rect><rect x="212.08" y="244.14" width="9.68" height="9.68" style="fill: rgb(235, 235, 235); transform-origin: 216.92px 248.98px;" id="el0qspdyaz53ja" class="animable"></rect><rect x="227.87" y="244.14" width="9.68" height="9.68" style="fill: rgb(235, 235, 235); transform-origin: 232.71px 248.98px;" id="el81ynhm9y6s9" class="animable"></rect><rect x="164.72" y="257.17" width="9.68" height="9.68" style="fill: rgb(235, 235, 235); transform-origin: 169.56px 262.01px;" id="eljfcu7mgs4w" class="animable"></rect><rect x="180.51" y="257.17" width="9.68" height="9.68" style="fill: rgb(235, 235, 235); transform-origin: 185.35px 262.01px;" id="el62l315b6yd6" class="animable"></rect><rect x="196.3" y="257.17" width="9.68" height="9.68" style="fill: rgb(235, 235, 235); transform-origin: 201.14px 262.01px;" id="elem9x86uhebg" class="animable"></rect><rect x="212.08" y="257.17" width="9.68" height="9.68" style="fill: rgb(235, 235, 235); transform-origin: 216.92px 262.01px;" id="el4zeyy01pg0b" class="animable"></rect><rect x="227.87" y="257.17" width="9.68" height="9.68" style="fill: rgb(235, 235, 235); transform-origin: 232.71px 262.01px;" id="eljvy82zsv7k" class="animable"></rect><rect x="268.56" y="176.5" width="70.95" height="205.9" style="fill: rgb(230, 230, 230); transform-origin: 304.035px 279.45px;" id="el42d9ovg79hm" class="animable"></rect><rect x="249.38" y="176.5" width="69.54" height="205.9" style="fill: rgb(245, 245, 245); transform-origin: 284.15px 279.45px;" id="elw4fagyf3y2p" class="animable"></rect><rect x="254.95" y="183.67" width="59.05" height="7.65" style="fill: rgb(224, 224, 224); transform-origin: 284.475px 187.495px;" id="elrvh0nj0nmaf" class="animable"></rect><rect x="254.95" y="195.45" width="59.05" height="7.65" style="fill: rgb(224, 224, 224); transform-origin: 284.475px 199.275px;" id="el5tcq0y923qy" class="animable"></rect><rect x="254.95" y="207.23" width="59.05" height="7.65" style="fill: rgb(224, 224, 224); transform-origin: 284.475px 211.055px;" id="elzyq7ycu726" class="animable"></rect><rect x="254.95" y="219.01" width="59.05" height="7.65" style="fill: rgb(224, 224, 224); transform-origin: 284.475px 222.835px;" id="el4pjgeyi7rcg" class="animable"></rect><rect x="254.95" y="230.8" width="59.05" height="7.65" style="fill: rgb(224, 224, 224); transform-origin: 284.475px 234.625px;" id="el2kv5pcdys4o" class="animable"></rect><rect x="89.55" y="273.12" width="70.95" height="109.28" style="fill: rgb(230, 230, 230); transform-origin: 125.025px 327.76px;" id="el5mm8zrwh3wc" class="animable"></rect><rect x="70.36" y="273.12" width="69.54" height="109.28" style="fill: rgb(240, 240, 240); transform-origin: 105.13px 327.76px;" id="elyx6w0v029jm" class="animable"></rect><rect x="75.61" y="279.45" width="59.05" height="7.65" style="fill: rgb(224, 224, 224); transform-origin: 105.135px 283.275px;" id="elmdnwxa356f" class="animable"></rect><rect x="75.61" y="291.23" width="59.05" height="7.65" style="fill: rgb(224, 224, 224); transform-origin: 105.135px 295.055px;" id="elckmqy8vay7u" class="animable"></rect><rect x="75.61" y="303.01" width="59.05" height="7.65" style="fill: rgb(224, 224, 224); transform-origin: 105.135px 306.835px;" id="elhkoomx0nr39" class="animable"></rect><rect x="75.61" y="314.79" width="59.05" height="7.65" style="fill: rgb(224, 224, 224); transform-origin: 105.135px 318.615px;" id="el330oimj50gh" class="animable"></rect><rect x="75.61" y="326.58" width="59.05" height="7.65" style="fill: rgb(224, 224, 224); transform-origin: 105.135px 330.405px;" id="elg4eq0se2fej" class="animable"></rect><rect x="358.69" y="273.12" width="70.95" height="109.28" style="fill: rgb(230, 230, 230); transform-origin: 394.165px 327.76px;" id="elv8bulwv7nr8" class="animable"></rect><rect x="339.51" y="273.12" width="69.54" height="109.28" style="fill: rgb(240, 240, 240); transform-origin: 374.28px 327.76px;" id="el6ufcj3bfrl" class="animable"></rect><rect x="345.76" y="279.45" width="9.68" height="9.68" style="fill: rgb(250, 250, 250); transform-origin: 350.6px 284.29px;" id="elhu8g32p7tg7" class="animable"></rect><rect x="361.55" y="279.45" width="9.68" height="9.68" style="fill: rgb(250, 250, 250); transform-origin: 366.39px 284.29px;" id="elfhnbjz53bdu" class="animable"></rect><rect x="377.33" y="279.45" width="9.68" height="9.68" style="fill: rgb(250, 250, 250); transform-origin: 382.17px 284.29px;" id="elqrzu1afedwb" class="animable"></rect><rect x="393.12" y="279.45" width="9.68" height="9.68" style="fill: rgb(250, 250, 250); transform-origin: 397.96px 284.29px;" id="elut3u7z4tae" class="animable"></rect><rect x="345.76" y="293.98" width="9.68" height="9.68" style="fill: rgb(250, 250, 250); transform-origin: 350.6px 298.82px;" id="el93huqmlay4b" class="animable"></rect><rect x="361.55" y="293.98" width="9.68" height="9.68" style="fill: rgb(250, 250, 250); transform-origin: 366.39px 298.82px;" id="elfi9dm82g4l" class="animable"></rect><rect x="377.33" y="293.98" width="9.68" height="9.68" style="fill: rgb(250, 250, 250); transform-origin: 382.17px 298.82px;" id="elcqidib7cnnv" class="animable"></rect><rect x="393.12" y="293.98" width="9.68" height="9.68" style="fill: rgb(250, 250, 250); transform-origin: 397.96px 298.82px;" id="elvo2n8te1cv" class="animable"></rect><rect x="345.76" y="308.51" width="9.68" height="9.68" style="fill: rgb(250, 250, 250); transform-origin: 350.6px 313.35px;" id="el5shc22zgnhr" class="animable"></rect><rect x="361.55" y="308.51" width="9.68" height="9.68" style="fill: rgb(250, 250, 250); transform-origin: 366.39px 313.35px;" id="elxxsze3xw4qd" class="animable"></rect><rect x="377.33" y="308.51" width="9.68" height="9.68" style="fill: rgb(250, 250, 250); transform-origin: 382.17px 313.35px;" id="el7g21t7d9fnx" class="animable"></rect><rect x="393.12" y="308.51" width="9.68" height="9.68" style="fill: rgb(250, 250, 250); transform-origin: 397.96px 313.35px;" id="el3fzelq4xerl" class="animable"></rect><rect x="345.76" y="323.04" width="9.68" height="9.68" style="fill: rgb(250, 250, 250); transform-origin: 350.6px 327.88px;" id="el7xn359nnz9n" class="animable"></rect><rect x="361.55" y="323.04" width="9.68" height="9.68" style="fill: rgb(250, 250, 250); transform-origin: 366.39px 327.88px;" id="elltw6pk17wze" class="animable"></rect><rect x="377.33" y="323.04" width="9.68" height="9.68" style="fill: rgb(250, 250, 250); transform-origin: 382.17px 327.88px;" id="elp88i09bc8a" class="animable"></rect><rect x="393.12" y="323.04" width="9.68" height="9.68" style="fill: rgb(250, 250, 250); transform-origin: 397.96px 327.88px;" id="elzmy8oxqnv9k" class="animable"></rect><path d="M52.46,185.85h93s6-11.9-4.25-11.9c0,0-1.86-13.11-11.06-14.88s-14.47,9.33-14.47,9.33-4.23-24.15-15.85-21.65-11.63,13.6-11.63,13.6S81.56,149,72.4,153.41,66,176.17,66,176.17,52.78,171.1,52.46,185.85Z" style="fill: rgb(245, 245, 245); transform-origin: 99.8326px 166.209px;" id="elce2089jq7a" class="animable"></path><path d="M337.17,90.49h73.5s-6.36-9.67-17.69-6.91c0,0,2.77-12.71-9.94-9.94,0,0-6.08-13.54-15.2-10s-7.74,16.58-7.74,16.58S339.1,74.19,337.17,90.49Z" style="fill: rgb(245, 245, 245); transform-origin: 373.92px 76.7699px;" id="elodbxfcuex9j" class="animable"></path><path d="M454.57,212.38H348.32s9.18-14,25.56-10c0,0-4-18.38,14.38-14.38,0,0,8.79-19.58,22-14.38s11.18,24,11.18,24S451.77,188.81,454.57,212.38Z" style="fill: rgb(245, 245, 245); transform-origin: 401.445px 192.561px;" id="elgao5uxh6fad" class="animable"></path></g><g id="freepik--Shadow--inject-26" class="animable" style="transform-origin: 250px 416.24px;"><g id="freepik--shape--inject-26" class="animable" style="transform-origin: 250px 416.24px;"><ellipse id="freepik--path--inject-44--inject-26" cx="250" cy="416.24" rx="193.89" ry="11.32" style="fill: rgb(245, 245, 245); transform-origin: 250px 416.24px;" class="animable"></ellipse></g></g><g id="freepik--plane-1--inject-26" class="animable" style="transform-origin: 244.909px 217.441px;"><path d="M370,143.65c-1.1,3.41-5.32,4.68-5.32,4.68L170.8,158.65c-13.74.26-23.53-1.43-30.49-4a33.32,33.32,0,0,1-10.8-6.06c-6.35-5.53-6.44-11.28-6.44-11.28L149.84,136l7.07-.36,8.15-.42c60.27-3.07,164.93-8.37,172.5-8.39a45,45,0,0,1,11.89,2.08,73.83,73.83,0,0,1,10.27,3.87c4,1.89,7.42,4,9.17,5.93a4.59,4.59,0,0,1,1.26,2.21A5.73,5.73,0,0,1,370,143.65Z" style="fill: #0D6EFD; transform-origin: 246.659px 142.753px;" id="elv348g5pqhlc" class="animable"></path><path d="M165.06,135.21l-8.15.42-7.07.36-26.77,1.37-3.5-29,11.72-.49s2.09,3.75,10.08,14.87S165.06,135.21,165.06,135.21Z" style="fill: #0D6EFD; transform-origin: 142.315px 122.615px;" id="elxgx040ued4" class="animable"></path><path d="M370,143.65c-1.1,3.41-5.32,4.68-5.32,4.68L170.8,158.65c-13.74.26-23.53-1.43-30.49-4Z" style="fill: rgb(38, 50, 56); transform-origin: 255.155px 151.163px;" id="eld8xmflifv4w" class="animable"></path><g id="el8cdhz4ai4jo"><path d="M368.89,138.7l-239.38,9.94c-6.35-5.53-6.43-11.28-6.43-11.28l0-.31-.22-1.84-3.24-26.82,11.71-.49s2.1,3.75,10.09,14.87,23.69,12.44,23.69,12.44c60.26-3.07,164.92-8.37,172.49-8.39a45,45,0,0,1,11.89,2.08c.43.12.85.25,1.28.39a73.88,73.88,0,0,1,9,3.48c.53.25,1,.5,1.55.76A26.93,26.93,0,0,1,368.89,138.7Z" style="opacity: 0.1; transform-origin: 244.255px 128.27px;" class="animable" id="eli589opbxoeg"></path></g><g id="elmhj7bakt0xn"><rect x="173.97" y="138.99" width="3.4" height="4.75" rx="1.49" style="fill: rgb(255, 255, 255); transform-origin: 175.67px 141.365px; transform: rotate(-2.42deg);" class="animable" id="elz828b1wa9og"></rect></g><g id="el5ek2ainlfa3"><rect x="180.97" y="138.69" width="3.4" height="4.75" rx="1.49" style="fill: rgb(255, 255, 255); transform-origin: 182.67px 141.065px; transform: rotate(-5.33deg);" class="animable" id="elvrxifqc316s"></rect></g><g id="eluu9xlkdusv"><rect x="188.11" y="138.39" width="3.4" height="4.75" rx="1.49" style="fill: rgb(255, 255, 255); transform-origin: 189.81px 140.765px; transform: rotate(-2.43deg);" class="animable" id="el25k7l8o5qpr"></rect></g><g id="elwtjqx2z5ws"><rect x="195.19" y="138.09" width="3.4" height="4.75" rx="1.49" style="fill: rgb(255, 255, 255); transform-origin: 196.89px 140.465px; transform: rotate(-2.42deg);" class="animable" id="elmehhr32cbr"></rect></g><g id="el9fkl90h3ayk"><rect x="202.72" y="137.77" width="3.4" height="4.75" rx="1.49" style="fill: rgb(255, 255, 255); transform-origin: 204.42px 140.145px; transform: rotate(-2.42deg);" class="animable" id="elrwgcwnk6vgq"></rect></g><g id="elbd3260hsowe"><rect x="210.08" y="137.46" width="3.4" height="4.75" rx="1.49" style="fill: rgb(255, 255, 255); transform-origin: 211.78px 139.835px; transform: rotate(-2.42deg);" class="animable" id="ell0b3vkxgpa"></rect></g><g id="elchpblpagf2"><rect x="277.4" y="134.62" width="3.4" height="4.75" rx="1.49" style="fill: rgb(255, 255, 255); transform-origin: 279.1px 136.995px; transform: rotate(-2.42deg);" class="animable" id="elimunkk66z8"></rect></g><g id="eldrpnvoxfh4"><rect x="284.9" y="134.31" width="3.4" height="4.75" rx="1.49" style="fill: rgb(255, 255, 255); transform-origin: 286.6px 136.685px; transform: rotate(-2.29061deg);" class="animable" id="el8uwysz9wjox"></rect></g><g id="elguy1unphvr"><rect x="291.57" y="134.02" width="3.4" height="4.75" rx="1.49" style="fill: rgb(255, 255, 255); transform-origin: 293.27px 136.395px; transform: rotate(-2.42deg);" class="animable" id="elhv51902kxsi"></rect></g><g id="el3ceb6u1i9kv"><rect x="298.55" y="133.73" width="3.4" height="4.75" rx="1.49" style="fill: rgb(255, 255, 255); transform-origin: 300.25px 136.105px; transform: rotate(-2.42deg);" class="animable" id="elph118kphgyn"></rect></g><g id="eldxo63yb232k"><rect x="305.12" y="133.45" width="3.4" height="4.75" rx="1.49" style="fill: rgb(255, 255, 255); transform-origin: 306.82px 135.825px; transform: rotate(-2.42deg);" class="animable" id="elysuydztu37l"></rect></g><path d="M275.08,137.66l-71.86-23.51A23.62,23.62,0,0,0,195,113l-16.1.55,42,26.72Z" style="fill: rgb(38, 50, 56); transform-origin: 226.99px 126.627px;" id="elikhcq6nfczj" class="animable"></path><path d="M244.07,154.75l-14.93,14,5.79.27a23.06,23.06,0,0,0,8.24-1.13l47.36-15.62Z" style="fill: rgb(38, 50, 56); transform-origin: 259.835px 160.657px;" id="el2hqkrka3nup" class="animable"></path><path d="M187.07,153.88l-2.54-2.77-23.9-5.51a32.87,32.87,0,0,0-9.33-.78l-10.41.62,20.17,9.69Z" style="fill: rgb(38, 50, 56); transform-origin: 163.98px 149.946px;" id="el64pak0bssus" class="animable"></path><path d="M165.07,135.21l-42,1.84-.22-1.84-1.4-11.61-.65-5.36-1.19-9.85,11.71-.49s1.42,2.53,6.35,9.6c1,1.47,2.2,3.13,3.56,5l.18.25C149.37,133.89,165.07,135.21,165.07,135.21Z" style="fill: rgb(38, 50, 56); transform-origin: 142.34px 122.475px;" id="elwn7xtf8h40q" class="animable"></path><path d="M141.2,122.52l-19.78,1.08-.65-5.36,16.87-.74C138.66,119,139.84,120.63,141.2,122.52Z" style="fill: rgb(255, 255, 255); transform-origin: 130.985px 120.55px;" id="elx6842brrh2" class="animable"></path><path d="M361.27,133.53c-10.2.71-39.07,2.07-43.33,1.76-5.26-.39-4.57-4.33-4.57-4.33l37.36-1.67a73.88,73.88,0,0,1,9,3.48C360.25,133,360.77,133.27,361.27,133.53Z" style="fill: rgb(255, 255, 255); transform-origin: 337.305px 132.313px;" id="elwscnxqp0t4p" class="animable"></path><path d="M149,211.11c.88-1.86,58.31-58.83,58.31-58.83l6.8,67.51" style="fill: none; stroke: rgb(38, 50, 56); stroke-linecap: round; stroke-linejoin: round; stroke-width: 0.5px; transform-origin: 181.555px 186.035px;" id="elgdud2zxbqpf" class="animable"></path><polyline points="159.97 212.09 207.33 152.28 222.77 221.27" style="fill: none; stroke: rgb(38, 50, 56); stroke-linecap: round; stroke-linejoin: round; stroke-width: 0.5px; transform-origin: 191.37px 186.775px;" id="el1btmtjp9kya" class="animable"></polyline><g id="elhjos5oipxjc"><rect x="154.22" y="216.19" width="65.84" height="47.32" style="fill: #0D6EFD; transform-origin: 187.14px 239.85px; transform: rotate(8.1deg);" class="animable" id="el564yrh6vr0a"></rect></g><g id="el83c7x2m8og9"><rect x="154.22" y="216.19" width="65.84" height="47.32" style="opacity: 0.3; transform-origin: 187.14px 239.85px; transform: rotate(8.1deg);" class="animable" id="el9rmn3qjh32q"></rect></g><g id="elj5jbh4ntn1"><rect x="145.29" y="214.92" width="65.84" height="47.32" style="fill: #0D6EFD; transform-origin: 178.21px 238.58px; transform: rotate(8.1deg);" class="animable" id="elvm1e7damogh"></rect></g><g id="el1udxschb14oj"><circle cx="178.14" cy="239.08" r="17.8" style="fill: rgb(255, 255, 255); opacity: 0.5; transform-origin: 178.14px 239.08px; transform: rotate(-1.85deg);" class="animable" id="el8ksmw7og9ga"></circle></g><g id="elbt8ud0hdu0u"><rect x="205.14" y="224.18" width="11.98" height="4.01" style="fill: rgb(255, 255, 255); opacity: 0.5; transform-origin: 211.13px 226.185px; transform: rotate(8.1deg);" class="animable" id="elsld32g9rmn"></rect></g><g id="elhzoskjs5y4"><rect x="200.61" y="256.02" width="11.98" height="4.01" style="fill: rgb(255, 255, 255); opacity: 0.5; transform-origin: 206.6px 258.025px; transform: rotate(8.1deg);" class="animable" id="el3t0y2vwk6k"></rect></g><path d="M167.28,230.54l3.56,2.19a1,1,0,0,1,.3,1.29l-1.59,2.57a.93.93,0,0,1-1.27.3l-3.57-2.19a4.79,4.79,0,0,0,6.43,4.61,3.52,3.52,0,0,1,3.22.46L187,248.56a2.62,2.62,0,0,0,3.65-.57,2.57,2.57,0,0,0-.65-3.58l-.24-.15-13.62-7.35a3.54,3.54,0,0,1-1.83-2.69A4.79,4.79,0,0,0,169,230a4.66,4.66,0,0,0-1.66.52Zm22.62,16.83a1,1,0,0,1-1.35.31,1,1,0,0,1,1-1.65,1,1,0,0,1,.32,1.34Z" style="fill: rgb(255, 255, 255); transform-origin: 177.909px 239.514px;" id="el2eo24sojxzt" class="animable"></path><polyline points="297.92 283.89 300.25 148.64 239.73 277.92" style="fill: none; stroke: rgb(38, 50, 56); stroke-linecap: round; stroke-linejoin: round; stroke-width: 0.5px; transform-origin: 269.99px 216.265px;" id="elpplbxm8v7r" class="animable"></polyline><polyline points="305.5 285.53 300.25 148.64 250.03 279.65" style="fill: none; stroke: rgb(38, 50, 56); stroke-linecap: round; stroke-linejoin: round; stroke-width: 0.5px; transform-origin: 277.765px 217.085px;" id="el09v2chf44i7s" class="animable"></polyline><g id="eluvrf6fhf3be"><rect x="244.56" y="281.19" width="59.07" height="42.45" style="fill: #0D6EFD; transform-origin: 274.095px 302.415px; transform: rotate(6.85deg);" class="animable" id="elrvzkz4e5cs"></rect></g><g id="ela41219gzou4"><rect x="244.56" y="281.19" width="59.07" height="42.45" style="opacity: 0.3; transform-origin: 274.095px 302.415px; transform: rotate(6.85deg);" class="animable" id="elyu6jb12y2q"></rect></g><g id="el10lqtr3y5p9p"><rect x="236.53" y="280.22" width="59.07" height="42.45" style="fill: #0D6EFD; transform-origin: 266.065px 301.445px; transform: rotate(6.85deg);" class="animable" id="el04aci74byr3j"></rect></g><g id="elo8enen6pfa"><circle cx="266.01" cy="301.9" r="15.97" style="fill: rgb(255, 255, 255); opacity: 0.5; transform-origin: 266.01px 301.9px; transform: rotate(-58.87deg);" class="animable" id="elje158cdr67"></circle></g><g id="el5mi8pne01gw"><path d="M256.33,298.12c.49-.58,1.36-.47,2.07.16l4.3,4.18-1.93,2.22s-2.88-3.91-3.48-4.69S256,298.51,256.33,298.12Z" style="fill: rgb(255, 255, 255); opacity: 0.8; isolation: isolate; transform-origin: 259.472px 301.21px;" class="animable" id="elad8gpvj9k96"></path></g><path d="M261.07,298.49c.1-.82.94-1.07,1.91-.85s4.75,1.93,4.75,1.93,4.3-.74,6.53.16c.75.29.78,1,.53,1.63a1.27,1.27,0,0,1-1.37.88l-6.24.05a1.32,1.32,0,0,1-.34,0,40.32,40.32,0,0,0-4.77-2.85C261.17,299,261,298.86,261.07,298.49Z" style="fill: rgb(255, 255, 255); transform-origin: 267.993px 299.932px;" id="elwpblt6juf8" class="animable"></path><path d="M274.76,300c-.66-.51-2.1-.57-3.59-.22a10.92,10.92,0,0,0-4.29,2.08l-.14,0-4.69.36-4.91-3.94c-.8-.6-1.69-.66-2.1-.07-.28.4.51,1.08,1.22,1.82s3.17,3.38,3.95,4.23a1.69,1.69,0,0,0,.53.39l1.13.55a4.45,4.45,0,0,0,1.84.33l9.1-1,5.33,4.71.73-6Z" style="fill: rgb(255, 255, 255); transform-origin: 266.926px 303.519px;" id="elyce13uwjkoi" class="animable"></path><g id="elleu05zipzg"><rect x="289.97" y="287.88" width="10.75" height="3.59" style="fill: rgb(255, 255, 255); opacity: 0.5; transform-origin: 295.345px 289.675px; transform: rotate(6.85deg);" class="animable" id="el0ms924dtmbig"></rect></g><g id="elkq2f3xhign"><rect x="286.53" y="316.53" width="10.75" height="3.59" style="fill: rgb(255, 255, 255); opacity: 0.5; transform-origin: 291.905px 318.325px; transform: rotate(6.85deg);" class="animable" id="elrgr2ebqza5n"></rect></g></g><g id="freepik--plane-2--inject-26" class="animable" style="transform-origin: 233.773px 77.6402px;"><path d="M303.51,74.78a2.58,2.58,0,0,0-.75-1.2l-.42-.39a19.3,19.3,0,0,0-4.8-2.7l-.67-.27a40.8,40.8,0,0,0-5.12-1.65,25.81,25.81,0,0,0-6.19-.9h-.45c-2.09.08-17.43,1.42-36.43,3.12-5.27.46-10.82,1-16.45,1.47l-12.68-3.6A13.19,13.19,0,0,0,215,68.2l-8.92.66,8.59,5-25,2.27a22.69,22.69,0,0,1-8.23-2.24,15.12,15.12,0,0,1-5.19-4.14c-1.72-2.21-3-3.88-3.88-5.11l-.07-.09-.32-.45-.32-.43-.06-.09-.23-.32-.05-.07-.21-.3v0l-.6-.87h0l-.07-.11,0,0,0-.06,0,0v0l0,0-3.79.31-2.69.22,2.51,15.58,0,.25v0l0,.13a4.94,4.94,0,0,0,.26,1.2,10.34,10.34,0,0,0,3.55,4.92h0a18.73,18.73,0,0,0,6.13,3.12c3.92,1.25,9.39,2,17,1.52l40.58-3.77-8,8.1,3.22,0a12.66,12.66,0,0,0,4.55-.81l25.94-9.71L300.63,79s2.31-.79,2.85-2.71A3.21,3.21,0,0,0,303.51,74.78Z" style="fill: #0D6EFD; transform-origin: 233.773px 77.6402px;" id="eluh2o6u3x2p" class="animable"></path><g id="el7f27vcphc0n"><path d="M303.51,74.78a2.58,2.58,0,0,0-.75-1.2l-.42-.39a19.3,19.3,0,0,0-4.8-2.7l-.67-.27a40.8,40.8,0,0,0-5.12-1.65,25.81,25.81,0,0,0-6.19-.9h-.45c-2.09.08-17.43,1.42-36.43,3.12-5.27.46-10.82,1-16.45,1.47l-12.68-3.6A13.19,13.19,0,0,0,215,68.2l-8.92.66,8.59,5-25,2.27a22.69,22.69,0,0,1-8.23-2.24,15.12,15.12,0,0,1-5.19-4.14c-1.72-2.21-3-3.88-3.88-5.11l-.07-.09-.32-.45-.32-.43-.06-.09-.23-.32-.05-.07-.21-.3v0l-.6-.87h0l-.07-.11,0,0,0-.06,0,0v0l0,0-3.79.31-2.69.22,2.51,15.58,0,.25v0l0,.13a4.94,4.94,0,0,0,.26,1.2,10.34,10.34,0,0,0,3.55,4.92h0a18.73,18.73,0,0,0,6.13,3.12c3.92,1.25,9.39,2,17,1.52l40.58-3.77-8,8.1,3.22,0a12.66,12.66,0,0,0,4.55-.81l25.94-9.71L300.63,79s2.31-.79,2.85-2.71A3.21,3.21,0,0,0,303.51,74.78Z" style="opacity: 0.5; transform-origin: 233.773px 77.6402px;" class="animable" id="el74fqfl8ulrb"></path></g></g><g id="freepik--plane-3--inject-26" class="animable" style="transform-origin: 360.88px 212.7px;"><polygon points="382.69 237.01 378.15 236.47 366.57 235.07 365.35 245.27 379.53 246.97 379.53 246.97 381.47 247.2 382.69 237.01" style="fill: #0D6EFD; transform-origin: 374.02px 241.135px;" id="el6464du2hfq6" class="animable"></polygon><g id="elndg9x3inyhg"><polygon points="382.69 237.01 378.15 236.47 366.57 235.07 365.35 245.27 379.53 246.97 379.53 246.97 381.47 247.2 382.69 237.01" style="opacity: 0.7; transform-origin: 374.02px 241.135px;" class="animable" id="el1nc9qhji05x"></polygon></g><polygon points="337.4 221.76 336 231.57 349.66 233.52 349.66 233.52 351.54 233.79 352.93 223.97 342.65 222.5 337.4 221.76" style="fill: #0D6EFD; transform-origin: 344.465px 227.775px;" id="elgaajlldarzi" class="animable"></polygon><g id="ell0pkr77c7nl"><polygon points="337.4 221.76 336 231.57 349.66 233.52 349.66 233.52 351.54 233.79 352.93 223.97 342.65 222.5 337.4 221.76" style="opacity: 0.7; transform-origin: 344.465px 227.775px;" class="animable" id="eleqgaub2k55t"></polygon></g><path d="M414.79,192.33a2,2,0,0,0-.54-1l-.31-.32a15.23,15.23,0,0,0-3.64-2.23l-.51-.23a31.51,31.51,0,0,0-3.92-1.44,20.3,20.3,0,0,0-4.77-.89h-.35c-1.62,0-13.56.57-28.34,1.3l-12.8.64L349.88,185a10.13,10.13,0,0,0-3.54-.51l-6.93.24,6.5,4.14-19.49,1a17.42,17.42,0,0,1-6.31-2,11.76,11.76,0,0,1-3.9-3.36c-1.27-1.77-2.19-3.1-2.85-4.08l-.05-.08-.24-.35-.22-.35-.05-.07-.17-.26,0-.05-.16-.24v0c-.2-.32-.35-.54-.43-.69h0l-.05-.09v0l0-.05v0l0,0h0l-3,.12-2.09.09,1.47,12.16,0,.19v.13a3.85,3.85,0,0,0,.16.94,8.11,8.11,0,0,0,2.61,3.92h0a14.61,14.61,0,0,0,4.65,2.62c3,1.08,7.22,1.81,13.14,1.7l31.57-1.68-6.43,6,2.49.12a10,10,0,0,0,3.56-.49l20.41-6.73,31.94-1.7a3.69,3.69,0,0,0,2.29-2A2.4,2.4,0,0,0,414.79,192.33Z" style="fill: #0D6EFD; transform-origin: 360.88px 191.36px;" id="el8s1kc7ioimo" class="animable"></path><g id="eljgrh5gk6bas"><path d="M414.79,192.33a2,2,0,0,0-.54-1l-.31-.32a15.23,15.23,0,0,0-3.64-2.23l-.51-.23a31.51,31.51,0,0,0-3.92-1.44,20.3,20.3,0,0,0-4.77-.89h-.35c-1.62,0-13.56.57-28.34,1.3l-12.8.64L349.88,185a10.13,10.13,0,0,0-3.54-.51l-6.93.24,6.5,4.14-19.49,1a17.42,17.42,0,0,1-6.31-2,11.76,11.76,0,0,1-3.9-3.36c-1.27-1.77-2.19-3.1-2.85-4.08l-.05-.08-.24-.35-.22-.35-.05-.07-.17-.26,0-.05-.16-.24v0c-.2-.32-.35-.54-.43-.69h0l-.05-.09v0l0-.05v0l0,0h0l-3,.12-2.09.09,1.47,12.16,0,.19v.13a3.85,3.85,0,0,0,.16.94,8.11,8.11,0,0,0,2.61,3.92h0a14.61,14.61,0,0,0,4.65,2.62c3,1.08,7.22,1.81,13.14,1.7l31.57-1.68-6.43,6,2.49.12a10,10,0,0,0,3.56-.49l20.41-6.73,31.94-1.7a3.69,3.69,0,0,0,2.29-2A2.4,2.4,0,0,0,414.79,192.33Z" style="opacity: 0.7; transform-origin: 360.88px 191.36px;" class="animable" id="elj22ktuqbvl"></path></g><polyline points="352.14 225.58 351.86 198.1 337.7 222.96" style="fill: none; stroke: rgb(38, 50, 56); stroke-linecap: round; stroke-linejoin: round; stroke-width: 0.5px; transform-origin: 344.92px 211.84px;" id="elv2l0y4q2kxj" class="animable"></polyline><polyline points="382.37 237.67 381.93 196.01 366.9 235.7" style="fill: none; stroke: rgb(38, 50, 56); stroke-linecap: round; stroke-linejoin: round; stroke-width: 0.5px; transform-origin: 374.635px 216.84px;" id="elgs6cyvbmz34" class="animable"></polyline></g><defs>     <filter id="active" height="200%">         <feMorphology in="SourceAlpha" result="DILATED" operator="dilate" radius="2"></feMorphology>                <feFlood flood-color="#32DFEC" flood-opacity="1" result="PINK"></feFlood>        <feComposite in="PINK" in2="DILATED" operator="in" result="OUTLINE"></feComposite>        <feMerge>            <feMergeNode in="OUTLINE"></feMergeNode>            <feMergeNode in="SourceGraphic"></feMergeNode>        </feMerge>    </filter>    <filter id="hover" height="200%">        <feMorphology in="SourceAlpha" result="DILATED" operator="dilate" radius="2"></feMorphology>                <feFlood flood-color="#ff0000" flood-opacity="0.5" result="PINK"></feFlood>        <feComposite in="PINK" in2="DILATED" operator="in" result="OUTLINE"></feComposite>        <feMerge>            <feMergeNode in="OUTLINE"></feMergeNode>            <feMergeNode in="SourceGraphic"></feMergeNode>        </feMerge>            <feColorMatrix type="matrix" values="0   0   0   0   0                0   1   0   0   0                0   0   0   0   0                0   0   0   1   0 "></feColorMatrix>    </filter></defs></svg>